<mxfile host="app.diagrams.net" modified="2024-06-10T20:14:38.812Z" agent="Mozilla/5.0 (Windows NT 10.0; Win64; x64) AppleWebKit/537.36 (KHTML, like Gecko) Chrome/125.0.0.0 Safari/537.36" etag="TTQKTKLHQXPdF_R5OJas" version="24.5.2" type="device">
  <diagram name="Страница — 1" id="xGRCO6IZKN7TetA4ORxo">
    <mxGraphModel dx="1290" dy="522" grid="0" gridSize="10" guides="1" tooltips="1" connect="1" arrows="1" fold="1" page="1" pageScale="1" pageWidth="827" pageHeight="1169" math="0" shadow="0">
      <root>
        <mxCell id="0" />
        <mxCell id="1" parent="0" />
        <mxCell id="_vgRPSAx2fbGKlJShkmF-1" value="" style="whiteSpace=wrap;html=1;aspect=fixed;" parent="1" vertex="1">
          <mxGeometry x="143" y="34" width="479" height="479" as="geometry" />
        </mxCell>
        <mxCell id="_vgRPSAx2fbGKlJShkmF-2" value="Кофейня" style="text;html=1;align=center;verticalAlign=middle;whiteSpace=wrap;rounded=0;" parent="1" vertex="1">
          <mxGeometry x="153" y="9" width="60" height="30" as="geometry" />
        </mxCell>
        <mxCell id="_vgRPSAx2fbGKlJShkmF-3" value="" style="image;html=1;image=img/lib/clip_art/people/Worker_Woman_Black_128x128.png" parent="1" vertex="1">
          <mxGeometry x="30" y="190" width="80" height="80" as="geometry" />
        </mxCell>
        <mxCell id="_vgRPSAx2fbGKlJShkmF-4" value="" style="image;html=1;image=img/lib/clip_art/people/Telesales_Woman_128x128.png" parent="1" vertex="1">
          <mxGeometry x="663" y="199" width="80" height="80" as="geometry" />
        </mxCell>
        <mxCell id="_vgRPSAx2fbGKlJShkmF-5" value="Клиент" style="text;html=1;align=center;verticalAlign=middle;whiteSpace=wrap;rounded=0;" parent="1" vertex="1">
          <mxGeometry x="43" y="289" width="60" height="30" as="geometry" />
        </mxCell>
        <mxCell id="_vgRPSAx2fbGKlJShkmF-6" value="Администратор" style="text;html=1;align=center;verticalAlign=middle;whiteSpace=wrap;rounded=0;" parent="1" vertex="1">
          <mxGeometry x="673" y="279" width="60" height="30" as="geometry" />
        </mxCell>
        <mxCell id="_vgRPSAx2fbGKlJShkmF-9" value="" style="endArrow=classic;html=1;rounded=0;entryX=0;entryY=0.5;entryDx=0;entryDy=0;entryPerimeter=0;" parent="1" target="yWsgclxo9ogE2_eLzv5j-1" edge="1">
          <mxGeometry width="50" height="50" relative="1" as="geometry">
            <mxPoint x="123" y="249" as="sourcePoint" />
            <mxPoint x="173" y="199" as="targetPoint" />
          </mxGeometry>
        </mxCell>
        <mxCell id="_vgRPSAx2fbGKlJShkmF-13" value="" style="endArrow=classic;html=1;rounded=0;entryX=0;entryY=0.5;entryDx=0;entryDy=0;entryPerimeter=0;" parent="1" edge="1">
          <mxGeometry width="50" height="50" relative="1" as="geometry">
            <mxPoint x="117" y="230" as="sourcePoint" />
            <mxPoint x="204" y="148.5" as="targetPoint" />
          </mxGeometry>
        </mxCell>
        <mxCell id="_vgRPSAx2fbGKlJShkmF-14" value="" style="endArrow=classic;html=1;rounded=0;entryX=0;entryY=0.5;entryDx=0;entryDy=0;entryPerimeter=0;" parent="1" edge="1" target="yWsgclxo9ogE2_eLzv5j-3">
          <mxGeometry width="50" height="50" relative="1" as="geometry">
            <mxPoint x="133" y="269" as="sourcePoint" />
            <mxPoint x="203" y="239" as="targetPoint" />
          </mxGeometry>
        </mxCell>
        <mxCell id="_vgRPSAx2fbGKlJShkmF-15" value="Добавление сотрудников" style="html=1;dashed=0;whiteSpace=wrap;shape=mxgraph.dfd.start" parent="1" vertex="1">
          <mxGeometry x="483" y="359" width="100" height="50" as="geometry" />
        </mxCell>
        <mxCell id="_vgRPSAx2fbGKlJShkmF-16" value="Обновление информации о сотрудниках" style="html=1;dashed=0;whiteSpace=wrap;shape=mxgraph.dfd.start" parent="1" vertex="1">
          <mxGeometry x="483" y="259" width="100" height="50" as="geometry" />
        </mxCell>
        <mxCell id="_vgRPSAx2fbGKlJShkmF-17" value="Удаление сотрудников" style="html=1;dashed=0;whiteSpace=wrap;shape=mxgraph.dfd.start" parent="1" vertex="1">
          <mxGeometry x="483" y="169" width="100" height="50" as="geometry" />
        </mxCell>
        <mxCell id="_vgRPSAx2fbGKlJShkmF-19" value="" style="endArrow=classic;html=1;rounded=0;entryX=1;entryY=0.5;entryDx=0;entryDy=0;entryPerimeter=0;" parent="1" edge="1" target="_vgRPSAx2fbGKlJShkmF-17">
          <mxGeometry width="50" height="50" relative="1" as="geometry">
            <mxPoint x="653" y="239" as="sourcePoint" />
            <mxPoint x="593" y="199" as="targetPoint" />
          </mxGeometry>
        </mxCell>
        <mxCell id="_vgRPSAx2fbGKlJShkmF-20" value="" style="endArrow=classic;html=1;rounded=0;exitX=0;exitY=1;exitDx=0;exitDy=0;entryX=1;entryY=0.5;entryDx=0;entryDy=0;entryPerimeter=0;" parent="1" source="_vgRPSAx2fbGKlJShkmF-4" target="_vgRPSAx2fbGKlJShkmF-16" edge="1">
          <mxGeometry width="50" height="50" relative="1" as="geometry">
            <mxPoint x="643" y="314" as="sourcePoint" />
            <mxPoint x="583" y="274" as="targetPoint" />
          </mxGeometry>
        </mxCell>
        <mxCell id="_vgRPSAx2fbGKlJShkmF-21" value="" style="endArrow=classic;html=1;rounded=0;entryX=1;entryY=0.5;entryDx=0;entryDy=0;entryPerimeter=0;" parent="1" target="_vgRPSAx2fbGKlJShkmF-15" edge="1">
          <mxGeometry width="50" height="50" relative="1" as="geometry">
            <mxPoint x="663" y="309" as="sourcePoint" />
            <mxPoint x="583" y="349" as="targetPoint" />
          </mxGeometry>
        </mxCell>
        <mxCell id="_vgRPSAx2fbGKlJShkmF-22" value="Обновление позиций меню" style="html=1;dashed=0;whiteSpace=wrap;shape=mxgraph.dfd.start" parent="1" vertex="1">
          <mxGeometry x="353" y="259" width="100" height="50" as="geometry" />
        </mxCell>
        <mxCell id="_vgRPSAx2fbGKlJShkmF-23" value="Добавление позиций меню" style="html=1;dashed=0;whiteSpace=wrap;shape=mxgraph.dfd.start" parent="1" vertex="1">
          <mxGeometry x="353" y="359" width="100" height="50" as="geometry" />
        </mxCell>
        <mxCell id="_vgRPSAx2fbGKlJShkmF-24" value="Удаление позиций меню" style="html=1;dashed=0;whiteSpace=wrap;shape=mxgraph.dfd.start" parent="1" vertex="1">
          <mxGeometry x="353" y="169" width="100" height="50" as="geometry" />
        </mxCell>
        <mxCell id="_vgRPSAx2fbGKlJShkmF-26" value="" style="endArrow=none;html=1;rounded=0;exitX=1;exitY=0.5;exitDx=0;exitDy=0;exitPerimeter=0;" parent="1" source="_vgRPSAx2fbGKlJShkmF-24" edge="1">
          <mxGeometry width="50" height="50" relative="1" as="geometry">
            <mxPoint x="443" y="193.5" as="sourcePoint" />
            <mxPoint x="483" y="193.5" as="targetPoint" />
          </mxGeometry>
        </mxCell>
        <mxCell id="_vgRPSAx2fbGKlJShkmF-27" value="" style="endArrow=none;html=1;rounded=0;exitX=1;exitY=0.5;exitDx=0;exitDy=0;exitPerimeter=0;" parent="1" edge="1">
          <mxGeometry width="50" height="50" relative="1" as="geometry">
            <mxPoint x="453" y="284.15999999999997" as="sourcePoint" />
            <mxPoint x="483" y="283.65999999999997" as="targetPoint" />
          </mxGeometry>
        </mxCell>
        <mxCell id="_vgRPSAx2fbGKlJShkmF-28" value="" style="endArrow=none;html=1;rounded=0;exitX=1;exitY=0.5;exitDx=0;exitDy=0;exitPerimeter=0;" parent="1" edge="1">
          <mxGeometry width="50" height="50" relative="1" as="geometry">
            <mxPoint x="453" y="384.15999999999997" as="sourcePoint" />
            <mxPoint x="483" y="383.65999999999997" as="targetPoint" />
          </mxGeometry>
        </mxCell>
        <mxCell id="yWsgclxo9ogE2_eLzv5j-1" value="Просмотр информации о своих заказах" style="html=1;dashed=0;whiteSpace=wrap;shape=mxgraph.dfd.start" vertex="1" parent="1">
          <mxGeometry x="204" y="186" width="103" height="44" as="geometry" />
        </mxCell>
        <mxCell id="yWsgclxo9ogE2_eLzv5j-2" value="" style="endArrow=classic;html=1;rounded=0;entryX=0;entryY=0.5;entryDx=0;entryDy=0;entryPerimeter=0;" edge="1" parent="1" target="yWsgclxo9ogE2_eLzv5j-5">
          <mxGeometry width="50" height="50" relative="1" as="geometry">
            <mxPoint x="100" y="210" as="sourcePoint" />
            <mxPoint x="187" y="129" as="targetPoint" />
          </mxGeometry>
        </mxCell>
        <mxCell id="yWsgclxo9ogE2_eLzv5j-3" value="Заказ" style="html=1;dashed=0;whiteSpace=wrap;shape=mxgraph.dfd.start" vertex="1" parent="1">
          <mxGeometry x="203" y="241" width="103" height="44" as="geometry" />
        </mxCell>
        <mxCell id="yWsgclxo9ogE2_eLzv5j-4" value="Поиск по меню" style="html=1;dashed=0;whiteSpace=wrap;shape=mxgraph.dfd.start" vertex="1" parent="1">
          <mxGeometry x="203" y="133" width="103" height="44" as="geometry" />
        </mxCell>
        <mxCell id="yWsgclxo9ogE2_eLzv5j-5" value="Просмотр меню" style="html=1;dashed=0;whiteSpace=wrap;shape=mxgraph.dfd.start" vertex="1" parent="1">
          <mxGeometry x="199" y="77" width="103" height="44" as="geometry" />
        </mxCell>
      </root>
    </mxGraphModel>
  </diagram>
</mxfile>
